<?xml version="1.0" encoding="UTF-8"?><svg xmlns="http://www.w3.org/2000/svg" width="890.61" height="249" xmlns:xlink="http://www.w3.org/1999/xlink" viewBox="0 0 890.61 249"><defs><style>.cls-1{fill:url(#blue_gradient);}</style><linearGradient id="blue_gradient" x1="249" y1="249" x2="0" y2="0" gradientUnits="userSpaceOnUse"><stop offset="0" stop-color="#000"/><stop offset="1" stop-color="#000b44"/></linearGradient></defs><g><g><path d="M314.75,174.27V74.67h19.84v79.76h20.04v19.84h-39.88Zm79.76-59.73v19.84h-20.04v20.04h-19.84v-20.04h19.84v-19.84h20.04Zm0,0v-39.88h19.84v39.88h-19.84Z"/><path d="M433.81,174.27V74.67h99.61v20.04h-79.76v59.73h79.76v19.84h-99.61Z"/><path d="M552.88,174.27V74.67h99.61v20.04h-79.76v19.84h79.76v19.84h-79.76v39.88h-19.84Z"/><path d="M671.94,174.27V74.67h99.61v20.04h-79.76v19.84h79.76v19.84h-79.76v20.04h79.76v19.84h-99.61Z"/><path d="M791,174.27v-19.84h79.76v-20.04h-79.76v-59.73h99.61v20.04h-79.76v19.84h79.76v59.73h-99.61Z"/></g><path class="cls-1" d="M0,0V249H249V0H0ZM29,220V29H220L29,220Z"/></g></svg>